<svg width="830" height="830" viewBox="0 0 830 830" fill="none" xmlns="http://www.w3.org/2000/svg">
<rect width="830" height="830" fill="black"/>
<path d="M532.47 208L208 208L208 532.47L94 646.47L94 94L646.47 94L532.47 208Z" fill="url(#paint0_linear_178_2)"/>
<path d="M209.53 736L323.53 622H622V323.53L736 209.53V736H209.53Z" fill="url(#paint1_linear_178_2)"/>
<path d="M533.187 481.286L533.187 296.813L348.714 296.813L283.901 232L598 232L598 546.099L533.187 481.286Z" fill="url(#paint2_linear_178_2)"/>
<path d="M233 297.683L297.813 362.496L297.813 532.187L467.504 532.187L532.317 597L233 597L233 297.683Z" fill="url(#paint3_linear_178_2)"/>
<defs>
<linearGradient id="paint0_linear_178_2" x1="94" y1="94" x2="736" y2="736" gradientUnits="userSpaceOnUse">
<stop stop-color="#4800AC"/>
<stop offset="1" stop-color="#CE0090"/>
</linearGradient>
<linearGradient id="paint1_linear_178_2" x1="94" y1="94" x2="736" y2="736" gradientUnits="userSpaceOnUse">
<stop stop-color="#4800AC"/>
<stop offset="1" stop-color="#CE0090"/>
</linearGradient>
<linearGradient id="paint2_linear_178_2" x1="598" y1="597" x2="233" y2="232" gradientUnits="userSpaceOnUse">
<stop stop-color="#CE0090"/>
<stop offset="1" stop-color="#4800AC"/>
</linearGradient>
<linearGradient id="paint3_linear_178_2" x1="598" y1="597" x2="233" y2="232" gradientUnits="userSpaceOnUse">
<stop stop-color="#CE0090"/>
<stop offset="1" stop-color="#4800AC"/>
</linearGradient>
</defs>
</svg>
