<svg width="2160" height="565" viewBox="0 0 2160 565" fill="none" xmlns="http://www.w3.org/2000/svg">
<g clip-path="url(#clip0_82_33)">
<rect width="2160" height="565" rx="60" fill="url(#paint0_linear_82_33)"/>
<path d="M408.188 266.312H429.188L476.438 364H455.625L447.812 347.562H390.75L383.188 364H362.312L408.188 266.312ZM440 331.25L418.875 286.875L398.312 331.25H440ZM491.625 266.312H511.438V346.625H568.25V364H491.625V266.312ZM592.062 334.938C595.604 336.938 599.188 338.75 602.812 340.375C606.479 341.958 610.271 343.312 614.188 344.438C618.104 345.521 622.208 346.354 626.5 346.938C630.833 347.521 635.438 347.812 640.312 347.812C646.188 347.812 651.188 347.438 655.312 346.688C659.438 345.896 662.792 344.833 665.375 343.5C668 342.125 669.896 340.5 671.062 338.625C672.271 336.75 672.875 334.708 672.875 332.5C672.875 328.958 671.396 326.167 668.438 324.125C665.479 322.042 660.917 321 654.75 321C652.042 321 649.188 321.188 646.188 321.562C643.188 321.896 640.146 322.271 637.062 322.688C634.021 323.104 631 323.5 628 323.875C625.042 324.208 622.25 324.375 619.625 324.375C615.25 324.375 611.042 323.812 607 322.688C603 321.562 599.438 319.875 596.312 317.625C593.229 315.375 590.771 312.562 588.938 309.188C587.104 305.812 586.188 301.875 586.188 297.375C586.188 294.708 586.542 292.062 587.25 289.438C588 286.812 589.167 284.312 590.75 281.938C592.375 279.521 594.458 277.292 597 275.25C599.542 273.167 602.604 271.375 606.188 269.875C609.812 268.375 613.979 267.208 618.688 266.375C623.438 265.5 628.833 265.062 634.875 265.062C639.25 265.062 643.646 265.312 648.062 265.812C652.479 266.271 656.771 266.938 660.938 267.812C665.146 268.688 669.188 269.75 673.062 271C676.938 272.208 680.542 273.562 683.875 275.062L675.188 291.062C672.438 289.854 669.479 288.75 666.312 287.75C663.146 286.708 659.833 285.812 656.375 285.062C652.917 284.312 649.333 283.729 645.625 283.312C641.958 282.854 638.208 282.625 634.375 282.625C628.917 282.625 624.417 283.021 620.875 283.812C617.375 284.604 614.583 285.625 612.5 286.875C610.417 288.083 608.958 289.458 608.125 291C607.333 292.5 606.938 294 606.938 295.5C606.938 298.417 608.25 300.812 610.875 302.688C613.5 304.521 617.5 305.438 622.875 305.438C625.042 305.438 627.521 305.292 630.312 305C633.146 304.667 636.104 304.312 639.188 303.938C642.312 303.562 645.479 303.229 648.688 302.938C651.938 302.604 655.083 302.438 658.125 302.438C663.875 302.438 668.958 303.083 673.375 304.375C677.833 305.667 681.562 307.521 684.562 309.938C687.562 312.312 689.833 315.208 691.375 318.625C692.917 322 693.688 325.792 693.688 330C693.688 335.625 692.375 340.646 689.75 345.062C687.167 349.438 683.458 353.146 678.625 356.188C673.833 359.188 668.042 361.479 661.25 363.062C654.458 364.604 646.896 365.375 638.562 365.375C633.062 365.375 627.688 365.021 622.438 364.312C617.188 363.646 612.146 362.688 607.312 361.438C602.521 360.146 597.938 358.625 593.562 356.875C589.229 355.083 585.208 353.125 581.5 351L592.062 334.938ZM709.75 314.875C709.75 307.5 711.104 300.75 713.812 294.625C716.521 288.5 720.312 283.25 725.188 278.875C730.104 274.458 735.979 271.042 742.812 268.625C749.688 266.208 757.292 265 765.625 265C773.917 265 781.5 266.208 788.375 268.625C795.25 271.042 801.125 274.458 806 278.875C810.917 283.25 814.729 288.5 817.438 294.625C820.146 300.75 821.5 307.5 821.5 314.875C821.5 322.292 820.146 329.104 817.438 335.312C814.729 341.479 810.917 346.792 806 351.25C801.125 355.708 795.25 359.188 788.375 361.688C781.5 364.146 773.917 365.375 765.625 365.375C757.292 365.375 749.688 364.146 742.812 361.688C735.979 359.188 730.104 355.708 725.188 351.25C720.312 346.792 716.521 341.479 713.812 335.312C711.104 329.104 709.75 322.292 709.75 314.875ZM729.562 314.875C729.562 319.917 730.458 324.458 732.25 328.5C734.083 332.542 736.604 336 739.812 338.875C743.062 341.708 746.875 343.896 751.25 345.438C755.667 346.979 760.458 347.75 765.625 347.75C770.792 347.75 775.562 346.979 779.938 345.438C784.354 343.896 788.167 341.708 791.375 338.875C794.583 336 797.104 332.542 798.938 328.5C800.771 324.458 801.688 319.917 801.688 314.875C801.688 309.833 800.771 305.312 798.938 301.312C797.104 297.312 794.583 293.938 791.375 291.188C788.167 288.396 784.354 286.271 779.938 284.812C775.562 283.354 770.792 282.625 765.625 282.625C760.458 282.625 755.667 283.354 751.25 284.812C746.875 286.271 743.062 288.396 739.812 291.188C736.604 293.938 734.083 297.312 732.25 301.312C730.458 305.312 729.562 309.833 729.562 314.875ZM880.062 314.562C880.062 307.604 881.375 301.125 884 295.125C886.625 289.083 890.417 283.854 895.375 279.438C900.375 274.979 906.458 271.479 913.625 268.938C920.833 266.396 928.979 265.125 938.062 265.125C946.021 265.125 953.312 265.938 959.938 267.562C966.604 269.146 972.792 271.583 978.5 274.875L969.375 289.875C967.667 288.75 965.688 287.75 963.438 286.875C961.229 286 958.854 285.271 956.312 284.688C953.812 284.062 951.208 283.583 948.5 283.25C945.833 282.917 943.188 282.75 940.562 282.75C934.229 282.75 928.583 283.542 923.625 285.125C918.667 286.667 914.479 288.854 911.062 291.688C907.688 294.479 905.104 297.833 903.312 301.75C901.562 305.625 900.688 309.896 900.688 314.562C900.688 319.396 901.604 323.833 903.438 327.875C905.271 331.917 907.917 335.417 911.375 338.375C914.875 341.292 919.125 343.583 924.125 345.25C929.167 346.875 934.854 347.688 941.188 347.688C944.062 347.688 946.917 347.479 949.75 347.062C952.583 346.646 955.312 346.083 957.938 345.375C960.604 344.625 963.167 343.75 965.625 342.75C968.083 341.708 970.375 340.583 972.5 339.375L981.625 354.375C976.292 357.792 970.125 360.479 963.125 362.438C956.125 364.354 948.688 365.312 940.812 365.312C930.771 365.312 921.958 364.021 914.375 361.438C906.792 358.812 900.458 355.229 895.375 350.688C890.292 346.104 886.458 340.729 883.875 334.562C881.333 328.354 880.062 321.688 880.062 314.562ZM1003.44 266.312H1023.25V291.812H1084V266.312H1103.88V364H1084V308.75H1023.25V364H1003.44V266.312ZM1131.62 266.312H1214.81V283.688H1151.44V303.188H1207.56V319.5H1151.44V346.688H1216.12V364H1131.62V266.312ZM1232.19 314.562C1232.19 307.604 1233.5 301.125 1236.12 295.125C1238.75 289.083 1242.54 283.854 1247.5 279.438C1252.5 274.979 1258.58 271.479 1265.75 268.938C1272.96 266.396 1281.1 265.125 1290.19 265.125C1298.15 265.125 1305.44 265.938 1312.06 267.562C1318.73 269.146 1324.92 271.583 1330.62 274.875L1321.5 289.875C1319.79 288.75 1317.81 287.75 1315.56 286.875C1313.35 286 1310.98 285.271 1308.44 284.688C1305.94 284.062 1303.33 283.583 1300.62 283.25C1297.96 282.917 1295.31 282.75 1292.69 282.75C1286.35 282.75 1280.71 283.542 1275.75 285.125C1270.79 286.667 1266.6 288.854 1263.19 291.688C1259.81 294.479 1257.23 297.833 1255.44 301.75C1253.69 305.625 1252.81 309.896 1252.81 314.562C1252.81 319.396 1253.73 323.833 1255.56 327.875C1257.4 331.917 1260.04 335.417 1263.5 338.375C1267 341.292 1271.25 343.583 1276.25 345.25C1281.29 346.875 1286.98 347.688 1293.31 347.688C1296.19 347.688 1299.04 347.479 1301.88 347.062C1304.71 346.646 1307.44 346.083 1310.06 345.375C1312.73 344.625 1315.29 343.75 1317.75 342.75C1320.21 341.708 1322.5 340.583 1324.62 339.375L1333.75 354.375C1328.42 357.792 1322.25 360.479 1315.25 362.438C1308.25 364.354 1300.81 365.312 1292.94 365.312C1282.9 365.312 1274.08 364.021 1266.5 361.438C1258.92 358.812 1252.58 355.229 1247.5 350.688C1242.42 346.104 1238.58 340.729 1236 334.562C1233.46 328.354 1232.19 321.688 1232.19 314.562ZM1355.62 266.312H1375.44V316.875L1427 266.312H1452.38L1404.25 312.938L1452.38 364H1426L1390 326.75L1375.44 340.812V364H1355.62V266.312ZM1456.38 314.875C1456.38 307.5 1457.73 300.75 1460.44 294.625C1463.15 288.5 1466.94 283.25 1471.81 278.875C1476.73 274.458 1482.6 271.042 1489.44 268.625C1496.31 266.208 1503.92 265 1512.25 265C1520.54 265 1528.12 266.208 1535 268.625C1541.88 271.042 1547.75 274.458 1552.62 278.875C1557.54 283.25 1561.35 288.5 1564.06 294.625C1566.77 300.75 1568.12 307.5 1568.12 314.875C1568.12 322.292 1566.77 329.104 1564.06 335.312C1561.35 341.479 1557.54 346.792 1552.62 351.25C1547.75 355.708 1541.88 359.188 1535 361.688C1528.12 364.146 1520.54 365.375 1512.25 365.375C1503.92 365.375 1496.31 364.146 1489.44 361.688C1482.6 359.188 1476.73 355.708 1471.81 351.25C1466.94 346.792 1463.15 341.479 1460.44 335.312C1457.73 329.104 1456.38 322.292 1456.38 314.875ZM1476.19 314.875C1476.19 319.917 1477.08 324.458 1478.88 328.5C1480.71 332.542 1483.23 336 1486.44 338.875C1489.69 341.708 1493.5 343.896 1497.88 345.438C1502.29 346.979 1507.08 347.75 1512.25 347.75C1517.42 347.75 1522.19 346.979 1526.56 345.438C1530.98 343.896 1534.79 341.708 1538 338.875C1541.21 336 1543.73 332.542 1545.56 328.5C1547.4 324.458 1548.31 319.917 1548.31 314.875C1548.31 309.833 1547.4 305.312 1545.56 301.312C1543.73 297.312 1541.21 293.938 1538 291.188C1534.79 288.396 1530.98 286.271 1526.56 284.812C1522.19 283.354 1517.42 282.625 1512.25 282.625C1507.08 282.625 1502.29 283.354 1497.88 284.812C1493.5 286.271 1489.69 288.396 1486.44 291.188C1483.23 293.938 1480.71 297.312 1478.88 301.312C1477.08 305.312 1476.19 309.833 1476.19 314.875ZM1586.44 266.312H1606.25V320.125C1606.25 324.542 1606.85 328.479 1608.06 331.938C1609.27 335.354 1611.06 338.25 1613.44 340.625C1615.85 343 1618.83 344.812 1622.38 346.062C1625.92 347.271 1630.04 347.875 1634.75 347.875C1639.42 347.875 1643.52 347.271 1647.06 346.062C1650.65 344.812 1653.62 343 1656 340.625C1658.42 338.25 1660.23 335.354 1661.44 331.938C1662.65 328.479 1663.25 324.542 1663.25 320.125V266.312H1683.06V322.5C1683.06 328.917 1681.98 334.75 1679.81 340C1677.65 345.25 1674.5 349.75 1670.38 353.5C1666.25 357.25 1661.19 360.146 1655.19 362.188C1649.23 364.229 1642.42 365.25 1634.75 365.25C1627.08 365.25 1620.25 364.229 1614.25 362.188C1608.29 360.146 1603.25 357.25 1599.12 353.5C1595 349.75 1591.85 345.25 1589.69 340C1587.52 334.75 1586.44 328.917 1586.44 322.5V266.312ZM1736.69 283.688H1700.62V266.312H1792.56V283.688H1756.5V364H1736.69V283.688Z" fill="white"/>
<circle cx="56.5" cy="516.5" r="119.5" fill="#0080FF"/>
<circle cx="2122.5" cy="37.5" r="119.5" fill="#0080FF"/>
</g>
<defs>
<linearGradient id="paint0_linear_82_33" x1="949.5" y1="-1.58879e-05" x2="949.5" y2="565" gradientUnits="userSpaceOnUse">
<stop stop-color="#00AAFF"/>
<stop offset="1" stop-color="#0049E6"/>
</linearGradient>
<clipPath id="clip0_82_33">
<rect width="2160" height="565" rx="60" fill="white"/>
</clipPath>
</defs>
</svg>
