<svg width="2160" height="565" viewBox="0 0 2160 565" fill="none" xmlns="http://www.w3.org/2000/svg">
<g clip-path="url(#clip0_82_20)">
<rect width="2160" height="565" rx="60" fill="url(#paint0_linear_82_20)"/>
<path d="M473.375 266.312H493.312V364H473.375V266.312ZM518.5 266.312H538.312L599.188 298.188V266.312H619V364H599.188V319.188L538.312 287.5V364H518.5V266.312ZM651.188 334.938C654.729 336.938 658.312 338.75 661.938 340.375C665.604 341.958 669.396 343.312 673.312 344.438C677.229 345.521 681.333 346.354 685.625 346.938C689.958 347.521 694.562 347.812 699.438 347.812C705.312 347.812 710.312 347.438 714.438 346.688C718.562 345.896 721.917 344.833 724.5 343.5C727.125 342.125 729.021 340.5 730.188 338.625C731.396 336.75 732 334.708 732 332.5C732 328.958 730.521 326.167 727.562 324.125C724.604 322.042 720.042 321 713.875 321C711.167 321 708.312 321.188 705.312 321.562C702.312 321.896 699.271 322.271 696.188 322.688C693.146 323.104 690.125 323.5 687.125 323.875C684.167 324.208 681.375 324.375 678.75 324.375C674.375 324.375 670.167 323.812 666.125 322.688C662.125 321.562 658.562 319.875 655.438 317.625C652.354 315.375 649.896 312.562 648.062 309.188C646.229 305.812 645.312 301.875 645.312 297.375C645.312 294.708 645.667 292.062 646.375 289.438C647.125 286.812 648.292 284.312 649.875 281.938C651.5 279.521 653.583 277.292 656.125 275.25C658.667 273.167 661.729 271.375 665.312 269.875C668.938 268.375 673.104 267.208 677.812 266.375C682.562 265.5 687.958 265.062 694 265.062C698.375 265.062 702.771 265.312 707.188 265.812C711.604 266.271 715.896 266.938 720.062 267.812C724.271 268.688 728.312 269.75 732.188 271C736.062 272.208 739.667 273.562 743 275.062L734.312 291.062C731.562 289.854 728.604 288.75 725.438 287.75C722.271 286.708 718.958 285.812 715.5 285.062C712.042 284.312 708.458 283.729 704.75 283.312C701.083 282.854 697.333 282.625 693.5 282.625C688.042 282.625 683.542 283.021 680 283.812C676.5 284.604 673.708 285.625 671.625 286.875C669.542 288.083 668.083 289.458 667.25 291C666.458 292.5 666.062 294 666.062 295.5C666.062 298.417 667.375 300.812 670 302.688C672.625 304.521 676.625 305.438 682 305.438C684.167 305.438 686.646 305.292 689.438 305C692.271 304.667 695.229 304.312 698.312 303.938C701.438 303.562 704.604 303.229 707.812 302.938C711.062 302.604 714.208 302.438 717.25 302.438C723 302.438 728.083 303.083 732.5 304.375C736.958 305.667 740.688 307.521 743.688 309.938C746.688 312.312 748.958 315.208 750.5 318.625C752.042 322 752.812 325.792 752.812 330C752.812 335.625 751.5 340.646 748.875 345.062C746.292 349.438 742.583 353.146 737.75 356.188C732.958 359.188 727.167 361.479 720.375 363.062C713.583 364.604 706.021 365.375 697.688 365.375C692.188 365.375 686.812 365.021 681.562 364.312C676.312 363.646 671.271 362.688 666.438 361.438C661.646 360.146 657.062 358.625 652.688 356.875C648.354 355.083 644.333 353.125 640.625 351L651.188 334.938ZM804.062 283.688H768V266.312H859.938V283.688H823.875V364H804.062V283.688ZM914.438 266.312H935.438L982.688 364H961.875L954.062 347.562H897L889.438 364H868.562L914.438 266.312ZM946.25 331.25L925.125 286.875L904.562 331.25H946.25ZM997.875 266.312H1017.69V346.625H1074.5V364H997.875V266.312ZM1093.75 266.312H1113.56V346.625H1170.38V364H1093.75V266.312ZM1222.94 266.312H1243.94L1291.19 364H1270.38L1262.56 347.562H1205.5L1197.94 364H1177.06L1222.94 266.312ZM1254.75 331.25L1233.62 286.875L1213.06 331.25H1254.75ZM1335.81 283.688H1299.75V266.312H1391.69V283.688H1355.62V364H1335.81V283.688ZM1410.38 266.312H1430.31V364H1410.38V266.312ZM1449.88 314.875C1449.88 307.5 1451.23 300.75 1453.94 294.625C1456.65 288.5 1460.44 283.25 1465.31 278.875C1470.23 274.458 1476.1 271.042 1482.94 268.625C1489.81 266.208 1497.42 265 1505.75 265C1514.04 265 1521.62 266.208 1528.5 268.625C1535.38 271.042 1541.25 274.458 1546.12 278.875C1551.04 283.25 1554.85 288.5 1557.56 294.625C1560.27 300.75 1561.62 307.5 1561.62 314.875C1561.62 322.292 1560.27 329.104 1557.56 335.312C1554.85 341.479 1551.04 346.792 1546.12 351.25C1541.25 355.708 1535.38 359.188 1528.5 361.688C1521.62 364.146 1514.04 365.375 1505.75 365.375C1497.42 365.375 1489.81 364.146 1482.94 361.688C1476.1 359.188 1470.23 355.708 1465.31 351.25C1460.44 346.792 1456.65 341.479 1453.94 335.312C1451.23 329.104 1449.88 322.292 1449.88 314.875ZM1469.69 314.875C1469.69 319.917 1470.58 324.458 1472.38 328.5C1474.21 332.542 1476.73 336 1479.94 338.875C1483.19 341.708 1487 343.896 1491.38 345.438C1495.79 346.979 1500.58 347.75 1505.75 347.75C1510.92 347.75 1515.69 346.979 1520.06 345.438C1524.48 343.896 1528.29 341.708 1531.5 338.875C1534.71 336 1537.23 332.542 1539.06 328.5C1540.9 324.458 1541.81 319.917 1541.81 314.875C1541.81 309.833 1540.9 305.312 1539.06 301.312C1537.23 297.312 1534.71 293.938 1531.5 291.188C1528.29 288.396 1524.48 286.271 1520.06 284.812C1515.69 283.354 1510.92 282.625 1505.75 282.625C1500.58 282.625 1495.79 283.354 1491.38 284.812C1487 286.271 1483.19 288.396 1479.94 291.188C1476.73 293.938 1474.21 297.312 1472.38 301.312C1470.58 305.312 1469.69 309.833 1469.69 314.875ZM1583.5 266.312H1603.31L1664.19 298.188V266.312H1684V364H1664.19V319.188L1603.31 287.5V364H1583.5V266.312Z" fill="white"/>
<circle cx="56.5" cy="516.5" r="119.5" fill="#0080FF"/>
<circle cx="2122.5" cy="37.5" r="119.5" fill="#0080FF"/>
<path d="M931.98 421.648C931.98 419.396 932.306 417.221 932.957 415.125C933.608 413.029 934.513 411.043 935.672 409.168C936.831 407.293 938.211 405.548 939.812 403.934C941.427 402.306 943.185 400.828 945.086 399.5L947.762 403.621C946.16 404.884 944.708 406.199 943.406 407.566C942.104 408.921 940.991 410.346 940.066 411.844C939.155 413.341 938.445 414.904 937.938 416.531C937.443 418.159 937.195 419.865 937.195 421.648C937.195 423.432 937.384 425.125 937.762 426.727C938.152 428.328 938.738 429.858 939.52 431.316C940.301 432.775 941.284 434.174 942.469 435.516C943.654 436.844 945.047 438.139 946.648 439.402L943.973 443.523C942.072 442.195 940.372 440.73 938.875 439.129C937.391 437.54 936.134 435.828 935.105 433.992C934.09 432.143 933.315 430.19 932.781 428.133C932.247 426.062 931.98 423.901 931.98 421.648ZM952.469 425.535C952.469 423.842 952.775 422.267 953.387 420.809C954.012 419.337 954.917 418.068 956.102 417C957.299 415.919 958.758 415.073 960.477 414.461C962.208 413.849 964.181 413.543 966.395 413.543C967.358 413.543 968.328 413.602 969.305 413.719C970.281 413.836 971.219 414.005 972.117 414.227C973.029 414.435 973.882 414.689 974.676 414.988C975.47 415.275 976.16 415.594 976.746 415.945L974.07 420.301C972.807 419.715 971.609 419.285 970.477 419.012C969.357 418.738 968.217 418.602 967.059 418.602C965.73 418.602 964.539 418.777 963.484 419.129C962.43 419.467 961.531 419.949 960.789 420.574C960.06 421.186 959.5 421.915 959.109 422.762C958.732 423.595 958.543 424.507 958.543 425.496C958.543 426.486 958.745 427.404 959.148 428.25C959.565 429.083 960.145 429.806 960.887 430.418C961.642 431.017 962.547 431.492 963.602 431.844C964.669 432.182 965.854 432.352 967.156 432.352C968.589 432.352 969.936 432.15 971.199 431.746C972.475 431.342 973.66 430.802 974.754 430.125L977.43 434.48C976.74 434.897 975.991 435.288 975.184 435.652C974.376 436.004 973.51 436.31 972.586 436.57C971.674 436.831 970.711 437.033 969.695 437.176C968.693 437.332 967.651 437.41 966.57 437.41C964.37 437.41 962.397 437.111 960.652 436.512C958.908 435.913 957.43 435.086 956.219 434.031C955.008 432.964 954.077 431.707 953.426 430.262C952.788 428.816 952.469 427.241 952.469 425.535ZM983.816 404.598H989.598V437H983.816V404.598ZM1000.07 410.809C999.493 410.809 998.973 410.73 998.504 410.574C998.048 410.405 997.658 410.184 997.332 409.91C997.007 409.624 996.753 409.298 996.57 408.934C996.401 408.556 996.316 408.159 996.316 407.742C996.316 407.312 996.401 406.915 996.57 406.551C996.753 406.173 997.007 405.848 997.332 405.574C997.658 405.301 998.048 405.086 998.504 404.93C998.973 404.76 999.493 404.676 1000.07 404.676C1000.65 404.676 1001.17 404.76 1001.63 404.93C1002.1 405.086 1002.49 405.301 1002.82 405.574C1003.15 405.848 1003.39 406.173 1003.56 406.551C1003.74 406.915 1003.84 407.312 1003.84 407.742C1003.84 408.159 1003.74 408.556 1003.56 408.934C1003.39 409.298 1003.15 409.624 1002.82 409.91C1002.49 410.184 1002.1 410.405 1001.63 410.574C1001.17 410.73 1000.65 410.809 1000.07 410.809ZM997.176 413.953H1002.96V437H997.176V413.953ZM1008.99 425.535C1008.99 423.842 1009.3 422.267 1009.91 420.809C1010.54 419.337 1011.44 418.068 1012.62 417C1013.82 415.919 1015.28 415.073 1017 414.461C1018.73 413.849 1020.7 413.543 1022.92 413.543C1023.88 413.543 1024.85 413.602 1025.83 413.719C1026.8 413.836 1027.74 414.005 1028.64 414.227C1029.55 414.435 1030.4 414.689 1031.2 414.988C1031.99 415.275 1032.68 415.594 1033.27 415.945L1030.59 420.301C1029.33 419.715 1028.13 419.285 1027 419.012C1025.88 418.738 1024.74 418.602 1023.58 418.602C1022.25 418.602 1021.06 418.777 1020.01 419.129C1018.95 419.467 1018.05 419.949 1017.31 420.574C1016.58 421.186 1016.02 421.915 1015.63 422.762C1015.26 423.595 1015.07 424.507 1015.07 425.496C1015.07 426.486 1015.27 427.404 1015.67 428.25C1016.09 429.083 1016.67 429.806 1017.41 430.418C1018.17 431.017 1019.07 431.492 1020.12 431.844C1021.19 432.182 1022.38 432.352 1023.68 432.352C1025.11 432.352 1026.46 432.15 1027.72 431.746C1029 431.342 1030.18 430.802 1031.28 430.125L1033.95 434.48C1033.26 434.897 1032.51 435.288 1031.71 435.652C1030.9 436.004 1030.03 436.31 1029.11 436.57C1028.2 436.831 1027.23 437.033 1026.22 437.176C1025.22 437.332 1024.17 437.41 1023.09 437.41C1020.89 437.41 1018.92 437.111 1017.18 436.512C1015.43 435.913 1013.95 435.086 1012.74 434.031C1011.53 432.964 1010.6 431.707 1009.95 430.262C1009.31 428.816 1008.99 427.241 1008.99 425.535ZM1040.2 404.598H1045.98V423.738L1056.77 413.953H1065.61L1053.56 424.734L1066.38 437H1057.7L1049.13 428.699L1045.98 431.512V437H1040.2V404.598ZM1083.62 413.953H1089.4V415.906C1090.85 415.021 1092.25 414.409 1093.62 414.07C1095 413.719 1096.35 413.543 1097.66 413.543C1099.5 413.543 1101.19 413.836 1102.72 414.422C1104.26 415.008 1105.57 415.893 1106.67 417.078C1107.51 416.427 1108.35 415.88 1109.17 415.438C1109.99 414.982 1110.81 414.617 1111.63 414.344C1112.45 414.057 1113.28 413.855 1114.13 413.738C1114.98 413.608 1115.85 413.543 1116.75 413.543C1118.63 413.543 1120.35 413.803 1121.88 414.324C1123.42 414.832 1124.73 415.594 1125.81 416.609C1126.9 417.625 1127.74 418.895 1128.33 420.418C1128.93 421.928 1129.23 423.68 1129.23 425.672V437H1123.46V426.609C1123.46 425.346 1123.28 424.22 1122.92 423.23C1122.57 422.228 1122.07 421.388 1121.41 420.711C1120.78 420.021 1120.01 419.5 1119.11 419.148C1118.22 418.784 1117.25 418.602 1116.18 418.602C1115.59 418.602 1114.99 418.66 1114.38 418.777C1113.77 418.882 1113.17 419.051 1112.59 419.285C1112.01 419.52 1111.47 419.819 1110.96 420.184C1110.46 420.535 1110.01 420.952 1109.64 421.434V437H1103.88V426.609C1103.88 425.346 1103.69 424.22 1103.33 423.23C1102.98 422.228 1102.48 421.388 1101.82 420.711C1101.19 420.021 1100.41 419.5 1099.5 419.148C1098.6 418.784 1097.61 418.602 1096.53 418.602C1095.87 418.602 1095.2 418.673 1094.52 418.816C1093.86 418.947 1093.21 419.135 1092.59 419.383C1091.97 419.63 1091.39 419.93 1090.85 420.281C1090.31 420.633 1089.83 421.03 1089.4 421.473V437H1083.62V413.953ZM1135.42 425.398C1135.42 423.836 1135.74 422.345 1136.38 420.926C1137.01 419.493 1137.93 418.23 1139.13 417.137C1140.33 416.043 1141.79 415.171 1143.52 414.52C1145.27 413.868 1147.25 413.543 1149.46 413.543C1151.66 413.543 1153.64 413.875 1155.4 414.539C1157.17 415.19 1158.67 416.089 1159.89 417.234C1161.13 418.38 1162.07 419.728 1162.72 421.277C1163.39 422.827 1163.72 424.487 1163.72 426.258C1163.72 426.479 1163.71 426.72 1163.7 426.98C1163.7 427.228 1163.69 427.456 1163.66 427.664H1141.86C1142.11 428.354 1142.51 428.986 1143.05 429.559C1143.61 430.132 1144.31 430.626 1145.14 431.043C1145.98 431.46 1146.94 431.785 1148.04 432.02C1149.13 432.241 1150.34 432.352 1151.67 432.352C1153 432.352 1154.32 432.215 1155.63 431.941C1156.95 431.655 1158.2 431.297 1159.4 430.867L1161.36 435.281C1160.6 435.633 1159.83 435.945 1159.05 436.219C1158.28 436.479 1157.48 436.701 1156.63 436.883C1155.8 437.052 1154.92 437.182 1153.99 437.273C1153.08 437.365 1152.12 437.41 1151.1 437.41C1148.51 437.41 1146.24 437.098 1144.29 436.473C1142.33 435.848 1140.7 434.995 1139.38 433.914C1138.07 432.833 1137.08 431.564 1136.41 430.105C1135.75 428.647 1135.42 427.078 1135.42 425.398ZM1157.59 423.152C1157.38 422.514 1157.05 421.922 1156.61 421.375C1156.18 420.815 1155.64 420.333 1154.99 419.93C1154.34 419.513 1153.58 419.188 1152.72 418.953C1151.86 418.719 1150.92 418.602 1149.89 418.602C1148.8 418.602 1147.8 418.725 1146.9 418.973C1146 419.22 1145.22 419.552 1144.54 419.969C1143.86 420.385 1143.3 420.867 1142.84 421.414C1142.4 421.961 1142.07 422.54 1141.86 423.152H1157.59ZM1184.6 421.648C1184.6 423.901 1184.33 426.062 1183.8 428.133C1183.26 430.19 1182.48 432.143 1181.45 433.992C1180.44 435.828 1179.18 437.54 1177.68 439.129C1176.2 440.73 1174.51 442.195 1172.61 443.523L1169.93 439.402C1171.53 438.139 1172.92 436.844 1174.11 435.516C1175.29 434.174 1176.28 432.775 1177.06 431.316C1177.84 429.858 1178.42 428.328 1178.8 426.727C1179.19 425.125 1179.38 423.432 1179.38 421.648C1179.38 419.865 1179.13 418.159 1178.62 416.531C1178.13 414.904 1177.42 413.341 1176.49 411.844C1175.58 410.346 1174.47 408.921 1173.17 407.566C1171.87 406.199 1170.42 404.884 1168.82 403.621L1171.49 399.5C1173.39 400.828 1175.14 402.306 1176.75 403.934C1178.36 405.548 1179.75 407.293 1180.91 409.168C1182.07 411.043 1182.97 413.029 1183.62 415.125C1184.27 417.221 1184.6 419.396 1184.6 421.648Z" fill="white"/>
</g>
<defs>
<linearGradient id="paint0_linear_82_20" x1="949.5" y1="-1.58879e-05" x2="949.5" y2="565" gradientUnits="userSpaceOnUse">
<stop stop-color="#00AAFF"/>
<stop offset="1" stop-color="#0049E6"/>
</linearGradient>
<clipPath id="clip0_82_20">
<rect width="2160" height="565" rx="60" fill="white"/>
</clipPath>
</defs>
</svg>
