<svg width="2160" height="565" viewBox="0 0 2160 565" fill="none" xmlns="http://www.w3.org/2000/svg">
<g clip-path="url(#clip0_82_20)">
<rect width="2160" height="565" rx="60" fill="url(#paint0_linear_82_20)"/>
<path d="M473.375 266.312H493.312V364H473.375V266.312ZM518.5 266.312H538.312L599.188 298.188V266.312H619V364H599.188V319.188L538.312 287.5V364H518.5V266.312ZM651.188 334.938C654.729 336.938 658.312 338.75 661.938 340.375C665.604 341.958 669.396 343.312 673.312 344.438C677.229 345.521 681.333 346.354 685.625 346.938C689.958 347.521 694.562 347.812 699.438 347.812C705.312 347.812 710.312 347.438 714.438 346.688C718.562 345.896 721.917 344.833 724.5 343.5C727.125 342.125 729.021 340.5 730.188 338.625C731.396 336.75 732 334.708 732 332.5C732 328.958 730.521 326.167 727.562 324.125C724.604 322.042 720.042 321 713.875 321C711.167 321 708.312 321.188 705.312 321.562C702.312 321.896 699.271 322.271 696.188 322.688C693.146 323.104 690.125 323.5 687.125 323.875C684.167 324.208 681.375 324.375 678.75 324.375C674.375 324.375 670.167 323.812 666.125 322.688C662.125 321.562 658.562 319.875 655.438 317.625C652.354 315.375 649.896 312.562 648.062 309.188C646.229 305.812 645.312 301.875 645.312 297.375C645.312 294.708 645.667 292.062 646.375 289.438C647.125 286.812 648.292 284.312 649.875 281.938C651.5 279.521 653.583 277.292 656.125 275.25C658.667 273.167 661.729 271.375 665.312 269.875C668.938 268.375 673.104 267.208 677.812 266.375C682.562 265.5 687.958 265.062 694 265.062C698.375 265.062 702.771 265.312 707.188 265.812C711.604 266.271 715.896 266.938 720.062 267.812C724.271 268.688 728.312 269.75 732.188 271C736.062 272.208 739.667 273.562 743 275.062L734.312 291.062C731.562 289.854 728.604 288.75 725.438 287.75C722.271 286.708 718.958 285.812 715.5 285.062C712.042 284.312 708.458 283.729 704.75 283.312C701.083 282.854 697.333 282.625 693.5 282.625C688.042 282.625 683.542 283.021 680 283.812C676.5 284.604 673.708 285.625 671.625 286.875C669.542 288.083 668.083 289.458 667.25 291C666.458 292.5 666.062 294 666.062 295.5C666.062 298.417 667.375 300.812 670 302.688C672.625 304.521 676.625 305.438 682 305.438C684.167 305.438 686.646 305.292 689.438 305C692.271 304.667 695.229 304.312 698.312 303.938C701.438 303.562 704.604 303.229 707.812 302.938C711.062 302.604 714.208 302.438 717.25 302.438C723 302.438 728.083 303.083 732.5 304.375C736.958 305.667 740.688 307.521 743.688 309.938C746.688 312.312 748.958 315.208 750.5 318.625C752.042 322 752.812 325.792 752.812 330C752.812 335.625 751.5 340.646 748.875 345.062C746.292 349.438 742.583 353.146 737.75 356.188C732.958 359.188 727.167 361.479 720.375 363.062C713.583 364.604 706.021 365.375 697.688 365.375C692.188 365.375 686.812 365.021 681.562 364.312C676.312 363.646 671.271 362.688 666.438 361.438C661.646 360.146 657.062 358.625 652.688 356.875C648.354 355.083 644.333 353.125 640.625 351L651.188 334.938ZM804.062 283.688H768V266.312H859.938V283.688H823.875V364H804.062V283.688ZM914.438 266.312H935.438L982.688 364H961.875L954.062 347.562H897L889.438 364H868.562L914.438 266.312ZM946.25 331.25L925.125 286.875L904.562 331.25H946.25ZM997.875 266.312H1017.69V346.625H1074.5V364H997.875V266.312ZM1093.75 266.312H1113.56V346.625H1170.38V364H1093.75V266.312ZM1222.94 266.312H1243.94L1291.19 364H1270.38L1262.56 347.562H1205.5L1197.94 364H1177.06L1222.94 266.312ZM1254.75 331.25L1233.62 286.875L1213.06 331.25H1254.75ZM1335.81 283.688H1299.75V266.312H1391.69V283.688H1355.62V364H1335.81V283.688ZM1410.38 266.312H1430.31V364H1410.38V266.312ZM1449.88 314.875C1449.88 307.5 1451.23 300.75 1453.94 294.625C1456.65 288.5 1460.44 283.25 1465.31 278.875C1470.23 274.458 1476.1 271.042 1482.94 268.625C1489.81 266.208 1497.42 265 1505.75 265C1514.04 265 1521.62 266.208 1528.5 268.625C1535.38 271.042 1541.25 274.458 1546.12 278.875C1551.04 283.25 1554.85 288.5 1557.56 294.625C1560.27 300.75 1561.62 307.5 1561.62 314.875C1561.62 322.292 1560.27 329.104 1557.56 335.312C1554.85 341.479 1551.04 346.792 1546.12 351.25C1541.25 355.708 1535.38 359.188 1528.5 361.688C1521.62 364.146 1514.04 365.375 1505.75 365.375C1497.42 365.375 1489.81 364.146 1482.94 361.688C1476.1 359.188 1470.23 355.708 1465.31 351.25C1460.44 346.792 1456.65 341.479 1453.94 335.312C1451.23 329.104 1449.88 322.292 1449.88 314.875ZM1469.69 314.875C1469.69 319.917 1470.58 324.458 1472.38 328.5C1474.21 332.542 1476.73 336 1479.94 338.875C1483.19 341.708 1487 343.896 1491.38 345.438C1495.79 346.979 1500.58 347.75 1505.75 347.75C1510.92 347.75 1515.69 346.979 1520.06 345.438C1524.48 343.896 1528.29 341.708 1531.5 338.875C1534.71 336 1537.23 332.542 1539.06 328.5C1540.9 324.458 1541.81 319.917 1541.81 314.875C1541.81 309.833 1540.9 305.312 1539.06 301.312C1537.23 297.312 1534.71 293.938 1531.5 291.188C1528.29 288.396 1524.48 286.271 1520.06 284.812C1515.69 283.354 1510.92 282.625 1505.75 282.625C1500.58 282.625 1495.79 283.354 1491.38 284.812C1487 286.271 1483.19 288.396 1479.94 291.188C1476.73 293.938 1474.21 297.312 1472.38 301.312C1470.58 305.312 1469.69 309.833 1469.69 314.875ZM1583.5 266.312H1603.31L1664.19 298.188V266.312H1684V364H1664.19V319.188L1603.31 287.5V364H1583.5V266.312Z" fill="white"/>
<circle cx="56.5" cy="516.5" r="119.5" fill="#0080FF"/>
<circle cx="2122.5" cy="37.5" r="119.5" fill="#0080FF"/>
</g>
<defs>
<linearGradient id="paint0_linear_82_20" x1="949.5" y1="-1.58879e-05" x2="949.5" y2="565" gradientUnits="userSpaceOnUse">
<stop stop-color="#00AAFF"/>
<stop offset="1" stop-color="#0049E6"/>
</linearGradient>
<clipPath id="clip0_82_20">
<rect width="2160" height="565" rx="60" fill="white"/>
</clipPath>
</defs>
</svg>
