<svg width="2160" height="565" viewBox="0 0 2160 565" fill="none" xmlns="http://www.w3.org/2000/svg">
<g clip-path="url(#clip0_82_39)">
<rect width="2160" height="565" rx="60" fill="url(#paint0_linear_82_39)"/>
<path d="M800.438 301.938C803.979 303.938 807.562 305.75 811.188 307.375C814.854 308.958 818.646 310.312 822.562 311.438C826.479 312.521 830.583 313.354 834.875 313.938C839.208 314.521 843.812 314.812 848.688 314.812C854.562 314.812 859.562 314.438 863.688 313.688C867.812 312.896 871.167 311.833 873.75 310.5C876.375 309.125 878.271 307.5 879.438 305.625C880.646 303.75 881.25 301.708 881.25 299.5C881.25 295.958 879.771 293.167 876.812 291.125C873.854 289.042 869.292 288 863.125 288C860.417 288 857.562 288.188 854.562 288.562C851.562 288.896 848.521 289.271 845.438 289.688C842.396 290.104 839.375 290.5 836.375 290.875C833.417 291.208 830.625 291.375 828 291.375C823.625 291.375 819.417 290.812 815.375 289.688C811.375 288.562 807.812 286.875 804.688 284.625C801.604 282.375 799.146 279.562 797.312 276.188C795.479 272.812 794.562 268.875 794.562 264.375C794.562 261.708 794.917 259.062 795.625 256.438C796.375 253.812 797.542 251.312 799.125 248.938C800.75 246.521 802.833 244.292 805.375 242.25C807.917 240.167 810.979 238.375 814.562 236.875C818.188 235.375 822.354 234.208 827.062 233.375C831.812 232.5 837.208 232.062 843.25 232.062C847.625 232.062 852.021 232.312 856.438 232.812C860.854 233.271 865.146 233.938 869.312 234.812C873.521 235.688 877.562 236.75 881.438 238C885.312 239.208 888.917 240.562 892.25 242.062L883.562 258.062C880.812 256.854 877.854 255.75 874.688 254.75C871.521 253.708 868.208 252.812 864.75 252.062C861.292 251.312 857.708 250.729 854 250.312C850.333 249.854 846.583 249.625 842.75 249.625C837.292 249.625 832.792 250.021 829.25 250.812C825.75 251.604 822.958 252.625 820.875 253.875C818.792 255.083 817.333 256.458 816.5 258C815.708 259.5 815.312 261 815.312 262.5C815.312 265.417 816.625 267.812 819.25 269.688C821.875 271.521 825.875 272.438 831.25 272.438C833.417 272.438 835.896 272.292 838.688 272C841.521 271.667 844.479 271.312 847.562 270.938C850.688 270.562 853.854 270.229 857.062 269.938C860.312 269.604 863.458 269.438 866.5 269.438C872.25 269.438 877.333 270.083 881.75 271.375C886.208 272.667 889.938 274.521 892.938 276.938C895.938 279.312 898.208 282.208 899.75 285.625C901.292 289 902.062 292.792 902.062 297C902.062 302.625 900.75 307.646 898.125 312.062C895.542 316.438 891.833 320.146 887 323.188C882.208 326.188 876.417 328.479 869.625 330.062C862.833 331.604 855.271 332.375 846.938 332.375C841.438 332.375 836.062 332.021 830.812 331.312C825.562 330.646 820.521 329.688 815.688 328.438C810.896 327.146 806.312 325.625 801.938 323.875C797.604 322.083 793.583 320.125 789.875 318L800.438 301.938ZM953.312 250.688H917.25V233.312H1009.19V250.688H973.125V331H953.312V250.688ZM1063.69 233.312H1084.69L1131.94 331H1111.12L1103.31 314.562H1046.25L1038.69 331H1017.81L1063.69 233.312ZM1095.5 298.25L1074.38 253.875L1053.81 298.25H1095.5ZM1147.12 233.312H1196.81C1204.31 233.312 1210.81 234.104 1216.31 235.688C1221.81 237.229 1226.38 239.479 1230 242.438C1233.62 245.396 1236.31 249 1238.06 253.25C1239.85 257.5 1240.75 262.312 1240.75 267.688C1240.75 271.312 1240.31 274.771 1239.44 278.062C1238.56 281.312 1237.21 284.312 1235.38 287.062C1233.58 289.812 1231.31 292.271 1228.56 294.438C1225.81 296.562 1222.58 298.333 1218.88 299.75L1240.12 331H1215.88L1197.5 303.25H1196.94L1166.94 303.188V331H1147.12V233.312ZM1197.31 286.062C1201.06 286.062 1204.33 285.625 1207.12 284.75C1209.96 283.875 1212.31 282.646 1214.19 281.062C1216.1 279.479 1217.52 277.562 1218.44 275.312C1219.4 273.021 1219.88 270.479 1219.88 267.688C1219.88 262.229 1218 258.021 1214.25 255.062C1210.5 252.062 1204.85 250.562 1197.31 250.562H1166.94V286.062H1197.31ZM1268.81 301.938C1272.35 303.938 1275.94 305.75 1279.56 307.375C1283.23 308.958 1287.02 310.312 1290.94 311.438C1294.85 312.521 1298.96 313.354 1303.25 313.938C1307.58 314.521 1312.19 314.812 1317.06 314.812C1322.94 314.812 1327.94 314.438 1332.06 313.688C1336.19 312.896 1339.54 311.833 1342.12 310.5C1344.75 309.125 1346.65 307.5 1347.81 305.625C1349.02 303.75 1349.62 301.708 1349.62 299.5C1349.62 295.958 1348.15 293.167 1345.19 291.125C1342.23 289.042 1337.67 288 1331.5 288C1328.79 288 1325.94 288.188 1322.94 288.562C1319.94 288.896 1316.9 289.271 1313.81 289.688C1310.77 290.104 1307.75 290.5 1304.75 290.875C1301.79 291.208 1299 291.375 1296.38 291.375C1292 291.375 1287.79 290.812 1283.75 289.688C1279.75 288.562 1276.19 286.875 1273.06 284.625C1269.98 282.375 1267.52 279.562 1265.69 276.188C1263.85 272.812 1262.94 268.875 1262.94 264.375C1262.94 261.708 1263.29 259.062 1264 256.438C1264.75 253.812 1265.92 251.312 1267.5 248.938C1269.12 246.521 1271.21 244.292 1273.75 242.25C1276.29 240.167 1279.35 238.375 1282.94 236.875C1286.56 235.375 1290.73 234.208 1295.44 233.375C1300.19 232.5 1305.58 232.062 1311.62 232.062C1316 232.062 1320.4 232.312 1324.81 232.812C1329.23 233.271 1333.52 233.938 1337.69 234.812C1341.9 235.688 1345.94 236.75 1349.81 238C1353.69 239.208 1357.29 240.562 1360.62 242.062L1351.94 258.062C1349.19 256.854 1346.23 255.75 1343.06 254.75C1339.9 253.708 1336.58 252.812 1333.12 252.062C1329.67 251.312 1326.08 250.729 1322.38 250.312C1318.71 249.854 1314.96 249.625 1311.12 249.625C1305.67 249.625 1301.17 250.021 1297.62 250.812C1294.12 251.604 1291.33 252.625 1289.25 253.875C1287.17 255.083 1285.71 256.458 1284.88 258C1284.08 259.5 1283.69 261 1283.69 262.5C1283.69 265.417 1285 267.812 1287.62 269.688C1290.25 271.521 1294.25 272.438 1299.62 272.438C1301.79 272.438 1304.27 272.292 1307.06 272C1309.9 271.667 1312.85 271.312 1315.94 270.938C1319.06 270.562 1322.23 270.229 1325.44 269.938C1328.69 269.604 1331.83 269.438 1334.88 269.438C1340.62 269.438 1345.71 270.083 1350.12 271.375C1354.58 272.667 1358.31 274.521 1361.31 276.938C1364.31 279.312 1366.58 282.208 1368.12 285.625C1369.67 289 1370.44 292.792 1370.44 297C1370.44 302.625 1369.12 307.646 1366.5 312.062C1363.92 316.438 1360.21 320.146 1355.38 323.188C1350.58 326.188 1344.79 328.479 1338 330.062C1331.21 331.604 1323.65 332.375 1315.31 332.375C1309.81 332.375 1304.44 332.021 1299.19 331.312C1293.94 330.646 1288.9 329.688 1284.06 328.438C1279.27 327.146 1274.69 325.625 1270.31 323.875C1265.98 322.083 1261.96 320.125 1258.25 318L1268.81 301.938Z" fill="white"/>
<circle cx="56.5" cy="516.5" r="119.5" fill="#0080FF"/>
<circle cx="2122.5" cy="37.5" r="119.5" fill="#0080FF"/>
</g>
<defs>
<linearGradient id="paint0_linear_82_39" x1="949.5" y1="-1.58879e-05" x2="949.5" y2="565" gradientUnits="userSpaceOnUse">
<stop stop-color="#00AAFF"/>
<stop offset="1" stop-color="#0049E6"/>
</linearGradient>
<clipPath id="clip0_82_39">
<rect width="2160" height="565" rx="60" fill="white"/>
</clipPath>
</defs>
</svg>
