<svg width="954" height="292" viewBox="0 0 954 292" fill="none" xmlns="http://www.w3.org/2000/svg">
<g clip-path="url(#clip0_2_4)">
<path d="M253.17 74.5842L83.9972 29.2986C82.8835 29.0004 81.722 28.9246 80.5789 29.0754C79.4359 29.2263 78.3338 29.6008 77.3356 30.1776C76.3373 30.7544 75.4625 31.5222 74.761 32.4372C74.0596 33.3521 73.5452 34.3963 73.2473 35.5101L55.0139 103.685C54.4122 105.935 54.7286 108.331 55.8936 110.348C57.0585 112.365 58.9767 113.836 61.2263 114.439L111.453 127.897C113.703 128.5 116.1 128.185 118.118 127.021C120.135 125.857 121.608 123.94 122.213 121.691L122.403 120.981C123.008 118.732 124.481 116.814 126.498 115.65C128.516 114.486 130.913 114.171 133.163 114.774L168.135 124.145C169.249 124.443 170.293 124.958 171.207 125.66C172.122 126.362 172.89 127.237 173.466 128.236C174.043 129.234 174.417 130.337 174.567 131.48C174.718 132.623 174.642 133.784 174.343 134.898L174.153 135.608C173.855 136.722 173.779 137.883 173.929 139.027C174.08 140.17 174.454 141.272 175.03 142.27C175.607 143.269 176.374 144.144 177.289 144.846C178.204 145.548 179.248 146.063 180.362 146.361L230.388 159.766C231.502 160.064 232.663 160.14 233.806 159.99C234.949 159.839 236.051 159.465 237.049 158.888C238.048 158.312 238.923 157.544 239.624 156.629C240.325 155.714 240.84 154.67 241.138 153.557L259.383 85.3365C259.985 83.0868 259.668 80.6902 258.503 78.6738C257.338 76.6575 255.42 75.1864 253.17 74.5842ZM46.2455 136.463L28 204.683C27.3983 206.933 27.7148 209.33 28.8799 211.346C30.045 213.362 31.9633 214.833 34.2129 215.436L203.386 260.721C204.5 261.019 205.661 261.095 206.804 260.944C207.947 260.794 209.049 260.419 210.048 259.842C211.046 259.265 211.921 258.498 212.622 257.583C213.324 256.668 213.838 255.624 214.136 254.51L232.369 186.335C232.971 184.085 232.655 181.688 231.49 179.672C230.325 177.655 228.406 176.184 226.157 175.581L176.124 162.175C175.011 161.876 173.849 161.8 172.706 161.951C171.563 162.101 170.46 162.475 169.462 163.052C168.463 163.628 167.588 164.396 166.886 165.31C166.184 166.225 165.67 167.269 165.371 168.383L164.972 169.872C164.369 172.121 162.898 174.039 160.881 175.204C158.865 176.368 156.468 176.684 154.218 176.082L119.203 166.706C118.09 166.408 117.046 165.894 116.132 165.192C115.218 164.49 114.45 163.615 113.874 162.617C113.298 161.619 112.925 160.516 112.775 159.374C112.625 158.231 112.702 157.07 113.001 155.957L113.404 154.458C113.703 153.345 113.78 152.184 113.631 151.041C113.481 149.898 113.107 148.796 112.531 147.798C111.956 146.799 111.188 145.924 110.274 145.222C109.36 144.52 108.316 144.005 107.203 143.707L56.9948 130.254C55.8813 129.956 54.7199 129.879 53.5769 130.03C52.434 130.181 51.3319 130.555 50.3337 131.132C49.3355 131.708 48.4606 132.476 47.7592 133.391C47.0577 134.306 46.5433 135.35 46.2455 136.463Z" fill="url(#paint0_linear_2_4)"/>
<path d="M126.371 141.303C128.313 134.46 138.363 135.713 138.566 142.823V142.823C138.746 149.122 147.178 151.055 150.272 145.565V145.565C153.853 139.21 163.714 142.684 162.127 149.803L159.991 159.388C159.03 163.699 154.682 166.351 150.409 165.232L129.256 159.693C125.115 158.608 122.673 154.333 123.841 150.214L126.371 141.303Z" fill="url(#paint1_linear_2_4)"/>
</g>
<path d="M314.875 107.312H334.688V187.625H391.5V205H314.875V107.312ZM407.062 107.312H426.875V161.125C426.875 165.542 427.479 169.479 428.688 172.938C429.896 176.354 431.688 179.25 434.062 181.625C436.479 184 439.458 185.812 443 187.062C446.542 188.271 450.667 188.875 455.375 188.875C460.042 188.875 464.146 188.271 467.688 187.062C471.271 185.812 474.25 184 476.625 181.625C479.042 179.25 480.854 176.354 482.062 172.938C483.271 169.479 483.875 165.542 483.875 161.125V107.312H503.688V163.5C503.688 169.917 502.604 175.75 500.438 181C498.271 186.25 495.125 190.75 491 194.5C486.875 198.25 481.812 201.146 475.812 203.188C469.854 205.229 463.042 206.25 455.375 206.25C447.708 206.25 440.875 205.229 434.875 203.188C428.917 201.146 423.875 198.25 419.75 194.5C415.625 190.75 412.479 186.25 410.312 181C408.146 175.75 407.062 169.917 407.062 163.5V107.312ZM557.312 124.688H521.25V107.312H613.188V124.688H577.125V205H557.312V124.688ZM631.875 107.312H651.812V205H631.875V107.312ZM671.375 155.875C671.375 148.5 672.729 141.75 675.438 135.625C678.146 129.5 681.938 124.25 686.812 119.875C691.729 115.458 697.604 112.042 704.438 109.625C711.312 107.208 718.917 106 727.25 106C735.542 106 743.125 107.208 750 109.625C756.875 112.042 762.75 115.458 767.625 119.875C772.542 124.25 776.354 129.5 779.062 135.625C781.771 141.75 783.125 148.5 783.125 155.875C783.125 163.292 781.771 170.104 779.062 176.312C776.354 182.479 772.542 187.792 767.625 192.25C762.75 196.708 756.875 200.188 750 202.688C743.125 205.146 735.542 206.375 727.25 206.375C718.917 206.375 711.312 205.146 704.438 202.688C697.604 200.188 691.729 196.708 686.812 192.25C681.938 187.792 678.146 182.479 675.438 176.312C672.729 170.104 671.375 163.292 671.375 155.875ZM691.188 155.875C691.188 160.917 692.083 165.458 693.875 169.5C695.708 173.542 698.229 177 701.438 179.875C704.688 182.708 708.5 184.896 712.875 186.438C717.292 187.979 722.083 188.75 727.25 188.75C732.417 188.75 737.188 187.979 741.562 186.438C745.979 184.896 749.792 182.708 753 179.875C756.208 177 758.729 173.542 760.562 169.5C762.396 165.458 763.312 160.917 763.312 155.875C763.312 150.833 762.396 146.312 760.562 142.312C758.729 138.312 756.208 134.938 753 132.188C749.792 129.396 745.979 127.271 741.562 125.812C737.188 124.354 732.417 123.625 727.25 123.625C722.083 123.625 717.292 124.354 712.875 125.812C708.5 127.271 704.688 129.396 701.438 132.188C698.229 134.938 695.708 138.312 693.875 142.312C692.083 146.312 691.188 150.833 691.188 155.875ZM805 107.312H824.812L885.688 139.188V107.312H905.5V205H885.688V160.188L824.812 128.5V205H805V107.312Z" fill="white"/>
<defs>
<linearGradient id="paint0_linear_2_4" x1="237" y1="84.5" x2="42.5" y2="198" gradientUnits="userSpaceOnUse">
<stop stop-color="#BF3131"/>
<stop offset="1" stop-color="#C94C36"/>
</linearGradient>
<linearGradient id="paint1_linear_2_4" x1="124.555" y1="158.038" x2="164.461" y2="144.929" gradientUnits="userSpaceOnUse">
<stop stop-color="#C94C36"/>
<stop offset="1" stop-color="#BF3131"/>
</linearGradient>
<clipPath id="clip0_2_4">
<rect width="231.681" height="231.721" fill="white" transform="translate(28 29)"/>
</clipPath>
</defs>
</svg>
