<svg width="370" height="370" viewBox="0 0 370 370" fill="none" xmlns="http://www.w3.org/2000/svg">
<path d="M131.142 206.424C128.854 214.96 133.92 223.733 142.455 226.02V226.02C149.08 227.795 153.011 234.605 151.236 241.229L132.609 310.746C130.322 319.281 121.549 324.346 113.013 322.059L15.4548 295.919C6.91933 293.632 1.854 284.858 4.14107 276.323L30.1696 179.183C32.4566 170.648 41.23 165.582 49.7655 167.869L119.874 186.655C128.41 188.942 133.475 197.715 131.188 206.251L131.142 206.424ZM295.908 354.501C293.621 363.037 284.848 368.102 276.312 365.815L179.183 339.789C170.648 337.502 165.582 328.729 167.869 320.194L186.303 251.397C188.185 244.375 195.403 240.208 202.425 242.089V242.089C210.96 244.376 219.734 239.311 222.021 230.775L222.067 230.602C224.354 222.066 233.128 217.001 241.663 219.288L310.623 237.766C319.158 240.053 324.224 248.826 321.937 257.362L295.908 354.501ZM182.015 126.36C180.24 132.985 173.431 136.916 166.806 135.141V135.141C158.271 132.854 149.497 137.919 147.21 146.455V146.455C145.866 151.47 140.711 154.447 135.696 153.103L59.2134 132.609C50.6779 130.322 45.6126 121.549 47.8997 113.013L74.0404 15.4548C76.3275 6.91936 85.1009 1.85404 93.6363 4.1411L191.195 30.2818C199.73 32.5689 204.796 41.3423 202.509 49.8777L182.015 126.36ZM339.667 191.192C337.38 199.728 328.606 204.793 320.071 202.506L244.737 182.32C239.722 180.976 236.746 175.821 238.089 170.806V170.806C240.376 162.271 235.311 153.497 226.776 151.21V151.21C219.754 149.328 215.586 142.111 217.468 135.089L237.769 59.3257C240.056 50.7902 248.829 45.7249 257.365 48.0119L354.494 74.0377C363.029 76.3247 368.095 85.0981 365.808 93.6336L339.667 191.192Z" fill="url(#paint0_linear_2_50)"/>
<defs>
<linearGradient id="paint0_linear_2_50" x1="322.72" y1="140.329" x2="39.8564" y2="217.548" gradientUnits="userSpaceOnUse">
<stop stop-color="#BF3131"/>
<stop offset="1" stop-color="#C94C36"/>
</linearGradient>
</defs>
</svg>
