<svg width="232" height="232" viewBox="0 0 232 232" fill="none" xmlns="http://www.w3.org/2000/svg">
<g clip-path="url(#clip0_1_5)">
<path d="M225.17 45.5842L55.9972 0.298552C54.8835 0.000426835 53.722 -0.0753874 52.5789 0.0754395C51.4359 0.226266 50.3338 0.60078 49.3356 1.17759C48.3373 1.7544 47.4625 2.52221 46.761 3.43717C46.0596 4.35212 45.5452 5.3963 45.2473 6.51007L27.0139 74.6848C26.4122 76.9347 26.7286 79.3315 27.8936 81.3482C29.0585 83.3648 30.9767 84.8363 33.2263 85.4391L83.4531 98.8973C85.7029 99.5002 88.1 99.1851 90.1176 98.0212C92.1352 96.8574 93.6081 94.94 94.2127 92.6906L94.4034 91.9809C95.0079 89.7315 96.4809 87.8142 98.4985 86.6503C100.516 85.4865 102.913 85.1714 105.163 85.7742L140.135 95.1449C141.249 95.4433 142.293 95.9582 143.207 96.6601C144.122 97.362 144.89 98.2372 145.466 99.2357C146.043 100.234 146.417 101.337 146.567 102.48C146.718 103.623 146.642 104.784 146.343 105.898L146.153 106.608C145.855 107.722 145.779 108.883 145.929 110.027C146.08 111.17 146.454 112.272 147.03 113.27C147.607 114.269 148.374 115.144 149.289 115.846C150.204 116.548 151.248 117.063 152.362 117.361L202.388 130.766C203.502 131.064 204.663 131.14 205.806 130.99C206.949 130.839 208.051 130.465 209.049 129.888C210.048 129.312 210.923 128.544 211.624 127.629C212.325 126.714 212.84 125.67 213.138 124.557L231.383 56.3365C231.985 54.0868 231.668 51.6902 230.503 49.6738C229.338 47.6575 227.42 46.1864 225.17 45.5842ZM18.2455 107.463L-1.26446e-06 175.683C-0.601687 177.933 -0.285177 180.33 0.879928 182.346C2.04503 184.362 3.96332 185.833 6.21289 186.436L175.386 231.721C176.5 232.019 177.661 232.095 178.804 231.944C179.947 231.794 181.049 231.419 182.048 230.842C183.046 230.265 183.921 229.498 184.622 228.583C185.324 227.668 185.838 226.624 186.136 225.51L204.369 157.335C204.971 155.085 204.655 152.688 203.49 150.672C202.325 148.655 200.406 147.184 198.157 146.581L148.124 133.175C147.011 132.876 145.849 132.8 144.706 132.951C143.563 133.101 142.46 133.475 141.462 134.052C140.463 134.628 139.588 135.396 138.886 136.31C138.184 137.225 137.67 138.269 137.371 139.383L136.972 140.872C136.369 143.121 134.898 145.039 132.881 146.204C130.865 147.368 128.468 147.684 126.218 147.082L91.2033 137.706C90.0899 137.408 89.0463 136.894 88.1319 136.192C87.2175 135.49 86.4504 134.615 85.8744 133.617C85.2985 132.619 84.9249 131.516 84.7751 130.374C84.6253 129.231 84.7022 128.07 85.0014 126.957L85.4042 125.458C85.7034 124.345 85.7804 123.184 85.6306 122.041C85.4809 120.898 85.1074 119.796 84.5314 118.798C83.9555 117.799 83.1885 116.924 82.2741 116.222C81.3598 115.52 80.3161 115.005 79.2027 114.707L28.9948 101.254C27.8813 100.956 26.7199 100.879 25.5769 101.03C24.434 101.181 23.3319 101.555 22.3337 102.132C21.3355 102.708 20.4606 103.476 19.7592 104.391C19.0577 105.306 18.5433 106.35 18.2455 107.463Z" fill="url(#paint0_linear_1_5)"/>
<path d="M98.3707 112.303C100.313 105.46 110.363 106.713 110.566 113.823V113.823C110.746 120.122 119.178 122.055 122.272 116.565V116.565C125.853 110.21 135.714 113.684 134.127 120.803L131.991 130.388C131.03 134.699 126.682 137.351 122.409 136.232L101.256 130.693C97.115 129.608 94.6725 125.333 95.8414 121.214L98.3707 112.303Z" fill="url(#paint1_linear_1_5)"/>
</g>
<defs>
<linearGradient id="paint0_linear_1_5" x1="209" y1="55.5" x2="14.5" y2="169" gradientUnits="userSpaceOnUse">
<stop stop-color="#BF3131"/>
<stop offset="1" stop-color="#C94C36"/>
</linearGradient>
<linearGradient id="paint1_linear_1_5" x1="96.555" y1="129.038" x2="136.461" y2="115.929" gradientUnits="userSpaceOnUse">
<stop stop-color="#C94C36"/>
<stop offset="1" stop-color="#BF3131"/>
</linearGradient>
<clipPath id="clip0_1_5">
<rect width="231.681" height="231.721" fill="white"/>
</clipPath>
</defs>
</svg>
