<svg width="1761" height="446" viewBox="0 0 1761 446" fill="none" xmlns="http://www.w3.org/2000/svg">
<path d="M171.142 236.424C168.854 244.96 173.92 253.733 182.455 256.02V256.02C189.08 257.795 193.011 264.605 191.236 271.229L172.609 340.746C170.322 349.281 161.549 354.346 153.013 352.059L55.4548 325.919C46.9193 323.632 41.854 314.858 44.1411 306.323L70.1696 209.183C72.4566 200.648 81.23 195.582 89.7655 197.869L159.874 216.655C168.41 218.942 173.475 227.715 171.188 236.251L171.142 236.424ZM335.908 384.501C333.621 393.037 324.848 398.102 316.312 395.815L219.183 369.789C210.648 367.502 205.582 358.729 207.869 350.194L226.303 281.397C228.185 274.375 235.403 270.208 242.425 272.089V272.089C250.96 274.376 259.734 269.311 262.021 260.775L262.067 260.602C264.354 252.066 273.128 247.001 281.663 249.288L350.623 267.766C359.158 270.053 364.224 278.826 361.937 287.362L335.908 384.501ZM222.015 156.36C220.24 162.985 213.431 166.916 206.806 165.141V165.141C198.271 162.854 189.497 167.919 187.21 176.455V176.455C185.866 181.47 180.711 184.447 175.696 183.103L99.2134 162.609C90.6779 160.322 85.6126 151.549 87.8997 143.013L114.04 45.4548C116.327 36.9194 125.101 31.854 133.636 34.1411L231.195 60.2818C239.73 62.5689 244.796 71.3423 242.509 79.8777L222.015 156.36ZM379.667 221.192C377.38 229.728 368.606 234.793 360.071 232.506L284.737 212.32C279.722 210.976 276.746 205.821 278.089 200.806V200.806C280.376 192.271 275.311 183.497 266.776 181.21V181.21C259.754 179.328 255.586 172.111 257.468 165.089L277.769 89.3257C280.056 80.7902 288.829 75.7249 297.365 78.0119L394.494 104.038C403.029 106.325 408.095 115.098 405.808 123.634L379.667 221.192Z" fill="url(#paint0_linear_2_62)"/>
<path d="M498.1 123.204H536.796V280.064H647.758V314H498.1V123.204ZM678.153 123.204H716.85V228.307C716.85 236.933 718.03 244.623 720.39 251.378C722.75 258.051 726.249 263.707 730.888 268.346C735.608 272.984 741.426 276.524 748.344 278.966C755.261 281.326 763.318 282.506 772.514 282.506C781.628 282.506 789.644 281.326 796.562 278.966C803.56 276.524 809.379 272.984 814.018 268.346C818.738 263.707 822.278 258.051 824.638 251.378C826.998 244.623 828.178 236.933 828.178 228.307V123.204H866.874V232.945C866.874 245.478 864.758 256.871 860.526 267.125C856.295 277.379 850.15 286.168 842.094 293.492C834.037 300.816 824.149 306.472 812.431 310.46C800.793 314.448 787.488 316.441 772.514 316.441C757.54 316.441 744.193 314.448 732.475 310.46C720.837 306.472 710.99 300.816 702.934 293.492C694.877 286.168 688.733 277.379 684.501 267.125C680.269 256.871 678.153 245.478 678.153 232.945V123.204ZM971.61 157.14H901.176V123.204H1080.74V157.14H1010.31V314H971.61V157.14ZM1117.24 123.204H1156.18V314H1117.24V123.204ZM1194.39 218.053C1194.39 203.648 1197.03 190.465 1202.32 178.502C1207.61 166.539 1215.02 156.285 1224.54 147.74C1234.14 139.114 1245.62 132.441 1258.96 127.721C1272.39 123.001 1287.24 120.641 1303.52 120.641C1319.71 120.641 1334.53 123.001 1347.95 127.721C1361.38 132.441 1372.86 139.114 1382.38 147.74C1391.98 156.285 1399.43 166.539 1404.72 178.502C1410.01 190.465 1412.65 203.648 1412.65 218.053C1412.65 232.538 1410.01 245.844 1404.72 257.97C1399.43 270.014 1391.98 280.39 1382.38 289.098C1372.86 297.805 1361.38 304.601 1347.95 309.483C1334.53 314.285 1319.71 316.686 1303.52 316.686C1287.24 316.686 1272.39 314.285 1258.96 309.483C1245.62 304.601 1234.14 297.805 1224.54 289.098C1215.02 280.39 1207.61 270.014 1202.32 257.97C1197.03 245.844 1194.39 232.538 1194.39 218.053ZM1233.08 218.053C1233.08 227.9 1234.83 236.77 1238.33 244.664C1241.91 252.558 1246.84 259.312 1253.1 264.928C1259.45 270.462 1266.9 274.734 1275.44 277.745C1284.07 280.756 1293.43 282.262 1303.52 282.262C1313.61 282.262 1322.93 280.756 1331.47 277.745C1340.1 274.734 1347.55 270.462 1353.81 264.928C1360.08 259.312 1365 252.558 1368.58 244.664C1372.16 236.77 1373.95 227.9 1373.95 218.053C1373.95 208.206 1372.16 199.376 1368.58 191.563C1365 183.751 1360.08 177.159 1353.81 171.788C1347.55 166.336 1340.1 162.185 1331.47 159.337C1322.93 156.489 1313.61 155.064 1303.52 155.064C1293.43 155.064 1284.07 156.489 1275.44 159.337C1266.9 162.185 1259.45 166.336 1253.1 171.788C1246.84 177.159 1241.91 183.751 1238.33 191.563C1234.83 199.376 1233.08 208.206 1233.08 218.053ZM1455.38 123.204H1494.07L1612.97 185.46V123.204H1651.66V314H1612.97V226.476L1494.07 164.586V314H1455.38V123.204Z" fill="white"/>
<defs>
<linearGradient id="paint0_linear_2_62" x1="362.72" y1="170.329" x2="79.8564" y2="247.548" gradientUnits="userSpaceOnUse">
<stop stop-color="#BF3131"/>
<stop offset="1" stop-color="#C94C36"/>
</linearGradient>
</defs>
</svg>
